Coordinates
version=1
nRows=12
nColumns=33
inDegrees=yes

Units are S.I. units (second, meters, Newtons, ...)
Angles are in degrees.

endheader
time	ground_thorax_rot_x	ground_thorax_rot_y	ground_thorax_rot_z	ground_thorax_tx	ground_thorax_ty	ground_thorax_tz	clav_prot_r	clav_elev_r	scapula_abduction_r	scapula_elevation_r	scapula_upward_rot_r	scapula_winging_r	shoulder_elv_r	plane_of_elev_r	axial_rot_r	elbow_flexion_r	pro_sup_r	wrist_flex_r	wrist_dev_r	clav_prot_l	clav_elev_l	scapula_abduction_l	scapula_elevation_l	scapula_upward_rot_l	scapula_winging_l	shoulder_elv_l	plane_of_elev_l	axial_rot_l	elbow_flexion_l	pro_sup_l	wrist_flex_l	wrist_dev_l
      2.77000000	      1.59177220	      0.11753208	    -11.53534596	     -0.04383811	      1.05024619	     -0.00009056	    -11.39372382	     -5.79671646	     -7.16318623	     -1.96732627	     12.83479661	     -2.07490353	     62.15326558	    -35.91786377	     55.98711013	     87.03013378	     -3.98192512	     14.36853957	     14.75447302	     -4.75392117	     -5.71523029	      0.50979286	     -1.76840331	     -0.67793381	      0.19370682	     57.30926087	    -37.95034721	    -33.67267536	     80.97275304	    -19.49925383	      1.20786574	    -11.88135170
      2.78000000	      1.58857855	      0.11764097	    -11.64001021	     -0.04360374	      1.05076534	     -0.00020299	    -11.33804696	     -6.29602387	     -6.97590122	     -2.39864576	     12.81485130	     -1.89760175	     61.79958407	    -35.33746464	     55.02183901	     86.47573546	     -4.46623322	     14.14372463	     14.49192190	     -4.71972658	     -6.41170885	      0.32248839	     -1.13763509	     -0.65938056	      0.01625569	     57.10171124	    -36.93705746	    -32.86389958	     79.83332903	    -19.77217259	      1.20300850	    -11.43361383
      2.79000000	      1.49561456	      0.06074223	    -11.48315434	     -0.04417545	      1.05023924	     -0.00043100	    -11.11573617	     -6.03958218	     -6.82846000	     -2.05961757	     12.47716697	     -1.95823437	     60.74272162	    -33.91264199	     53.69866841	     85.40798652	     -6.57193547	     13.36800613	     14.28655670	     -4.52380797	     -6.34214567	      0.16828871	     -1.36587965	     -1.10962655	      0.01814131	     56.64456429	    -35.05673102	    -31.47385223	     78.55885619	    -20.77908079	      2.22378226	     -9.96584271
      2.80000000	      1.45616404	      0.07910767	    -11.47250164	     -0.04436573	      1.05023064	     -0.00056710	    -11.01015186	     -6.19883269	     -6.70459673	     -2.14472855	     12.31169862	     -1.88219541	     59.94218562	    -32.89020952	     52.55546820	     84.35423627	     -8.67889947	     12.79291433	     14.17745860	     -4.31877960	     -6.68568515	     -0.12973931	     -1.17146045	     -1.41451459	     -0.06138101	     56.38049839	    -33.56262277	    -30.31733130	     77.14727945	    -21.50423393	      2.91884075	     -9.00345738
      2.81000000	      1.46779388	      0.09848028	    -11.56579575	     -0.04406984	      1.05084337	     -0.00072857	    -10.93302718	     -6.79345459	     -6.50857860	     -2.63517091	     12.21183174	     -1.65236925	     59.53191985	    -32.26992161	     51.53975466	     83.43072025	     -9.12050733	     12.49318924	     13.90037781	     -4.24505090	     -7.45325715	     -0.37349120	     -0.48653314	     -1.42221903	     -0.26876764	     56.15611490	    -32.55902243	    -29.53606879	     75.62769130	    -21.68439035	      2.86737243	     -8.57700026
      2.82000000	      1.37462529	      0.10435725	    -11.43470488	     -0.04466286	      1.05014417	     -0.00086183	    -10.74312056	     -6.56011792	     -6.44338672	     -2.29805625	     11.81381737	     -1.68733264	     58.34118024	    -30.71410422	     50.06668871	     82.01445559	    -11.21555130	     11.57514744	     13.83204493	     -3.97440700	     -7.31668216	     -0.66408117	     -0.76948110	     -1.85047632	     -0.19692136	     55.73018359	    -30.53949553	    -28.30247836	     73.88806417	    -22.45749610	      3.99662393	     -7.30881620
      2.83000000	      1.35695013	      0.15447191	    -11.42811870	     -0.04481762	      1.05010591	     -0.00098190	    -10.63948610	     -6.77321467	     -6.34403447	     -2.41285079	     11.59133559	     -1.57790931	     57.49618259	    -29.62251072	     48.85057669	     80.62670957	    -13.13984927	     10.94474952	     13.77648178	     -3.71528859	     -7.66384497	     -1.05424081	     -0.57248186	     -2.15311684	     -0.25525933	     55.46187998	    -29.02287774	    -27.23314312	     72.09288056	    -23.08451690	      4.75899156	     -6.40728157
      2.84000000	      1.37918962	      0.15934330	    -11.55928948	     -0.04452503	      1.05058061	     -0.00109430	    -10.53181691	     -7.39347976	     -6.13212769	     -2.90631372	     11.42734839	     -1.32092727	     57.01465100	    -28.88341261	     47.74672956	     79.38536219	    -13.58732525	     10.58809633	     13.49747956	     -3.59619596	     -8.41688280	     -1.35338545	      0.09002879	     -2.18676279	     -0.45984305	     55.26307568	    -28.00543664	    -26.48556209	     70.28811532	    -23.29219588	      4.75714089	     -5.92592377
      2.85000000	      1.31571060	      0.21704554	    -11.40128573	     -0.04502912	      1.04999617	     -0.00120507	    -10.35987587	     -7.23061649	     -6.09998060	     -2.61781875	     10.98853920	     -1.32556319	     55.83217963	    -27.32758068	     46.22236460	     77.57122340	    -15.23410042	      9.74408518	     13.58265820	     -3.29688314	     -8.34174063	     -1.71248379	     -0.13301787	     -2.59825591	     -0.37995781	     54.89050814	    -26.05850452	    -25.47872579	     68.20909383	    -24.22806888	      5.97022929	     -4.73760196
      2.86000000	      1.32002180	      0.27211072	    -11.39508048	     -0.04514940	      1.04995300	     -0.00129149	    -10.23214817	     -7.47839404	     -5.98177218	     -2.74527873	     10.71207243	     -1.19506156	     54.98113379	    -26.18844792	     44.92692617	     75.82528191	    -16.56315797	      9.22034625	     13.58257679	     -3.00997780	     -8.71689930	     -2.14998103	      0.08899031	     -2.89921978	     -0.43617299	     54.66570480	    -24.59895166	    -24.55971288	     66.13828889	    -25.07565562	      6.73624296	     -3.83418034
      2.87000000	      1.37282794	      0.27976689	    -11.50937446	     -0.04482002	      1.05050518	     -0.00141295	    -10.10068260	     -8.15909206	     -5.75069747	     -3.27647972	     10.49675840	     -0.90251090	     54.51185446	    -25.44260185	     43.79227961	     74.17419860	    -16.83281594	      8.86053261	     13.29648770	     -2.86101034	     -9.50362190	     -2.48222638	      0.77390058	     -2.95513293	     -0.66409727	     54.47187236	    -23.66715106	    -23.89122181	     64.14325579	    -25.31297126	      6.71229998	     -3.33784416
      2.88000000	      1.29928356	      0.30874812	    -11.40843537	     -0.04536106	      1.04979841	     -0.00139132	     -9.91218793	     -7.99633482	     -5.70614227	     -2.97149402	     10.01353277	     -0.91124871	     53.30559085	    -23.73878455	     42.15981231	     71.97923131	    -17.95634733	      8.27998976	     13.62518556	     -2.51596221	     -9.44254273	     -2.93753373	      0.57605812	     -3.32730514	     -0.55462354	     54.20630837	    -21.77055134	    -23.03085588	     61.77069882	    -26.49937131	      8.05735045	     -2.10745805
